<svg width="30" height="20" viewBox="0 0 30 20" fill="none" xmlns="http://www.w3.org/2000/svg">
<g clip-path="url(#clip0_602_9287)">
<path d="M29.17 10.38C29.16 10.35 29.15 10.33 29.15 10.31C28.89 9.02005 28.3 8.03005 27.35 7.29005C27.02 7.03005 26.69 6.77005 26.37 6.51005L26.21 6.38005H26.22C26.56 6.31005 26.89 6.25005 27.21 6.18005C27.67 6.08005 27.85 5.86005 27.85 5.40005C27.85 5.01005 27.85 4.62005 27.85 4.24005C27.85 3.73005 27.59 3.47005 27.08 3.47005C26.42 3.47005 25.73 3.47005 25.02 3.47005C24.52 3.47005 24.26 3.72005 24.24 4.20005C23.92 3.57005 23.61 2.92005 23.31 2.30005L23.19 2.06005C22.49 0.610049 21.34 -0.129951 19.77 -0.129951C16.12 -0.139951 12.69 -0.139951 9.26998 -0.129951C7.69998 -0.129951 6.54998 0.610049 5.85998 2.06005C5.74998 2.29005 5.64998 2.51005 5.54998 2.74005C5.40998 3.05005 5.26998 3.38005 5.10998 3.69005C5.01998 3.86005 4.91998 4.03005 4.81998 4.20005C4.79998 3.72005 4.53998 3.47005 4.05998 3.46005C3.29998 3.45005 2.60998 3.45005 1.93998 3.46005C1.46998 3.46005 1.20998 3.73005 1.19998 4.21005C1.19998 4.56005 1.19998 4.92005 1.19998 5.40005C1.19998 5.86005 1.38998 6.07005 1.84998 6.17005L2.84998 6.38005L2.71998 6.48005C2.36998 6.77005 2.02998 7.04005 1.68998 7.30005C1.01998 7.82005 0.509976 8.50005 0.199976 9.32005C0.0999756 9.59005 0.0199756 9.86005 -0.0400244 10.1C-0.0700244 10.21 -0.100024 10.33 -0.140024 10.44L-0.150024 18.8601L-0.140024 18.93C0.119976 19.6101 0.509976 19.99 1.09998 20.1101C1.25998 20.1401 1.41998 20.15 1.53998 20.15C2.65998 20.15 3.79998 20.15 4.92998 20.15C5.94998 20.15 6.61998 19.49 6.61998 18.47C6.61998 18.3 6.61998 18.1301 6.61998 17.9501V17.92H22.43V18.5301C22.44 19.4801 23.11 20.15 24.06 20.15C24.42 20.15 24.8 20.15 25.15 20.15C25.83 20.15 26.54 20.14 27.24 20.16C27.28 20.16 27.32 20.16 27.37 20.16C28.3 20.16 28.9 19.76 29.2 18.91L29.21 10.5L29.17 10.38ZM8.53998 16.08C10.33 16.08 12.12 16.08 13.91 16.08H20.27C20.72 16.08 21.1 16.22 21.44 16.51H7.37998C7.71998 16.23 8.09998 16.08 8.53998 16.08ZM6.28998 4.35005C6.35998 4.20005 6.42998 4.05005 6.48998 3.90005C6.74998 3.32005 6.99998 2.77005 7.30998 2.25005C7.70998 1.58005 8.37998 1.21005 9.19998 1.21005C12.81 1.20005 16.35 1.20005 19.86 1.21005C20.77 1.21005 21.48 1.66005 21.9 2.49005C22.15 2.97005 22.36 3.46005 22.6 3.98005L22.76 4.35005H6.28998ZM23.44 5.56005V5.71005C23.6 5.71005 23.68 5.76005 23.79 5.88005C24.15 6.26005 24.53 6.63005 24.9 7.00005L25.24 7.34005C25.22 7.35005 25.21 7.35005 25.19 7.36005L24.46 7.65005C23.88 7.88005 23.29 8.11005 22.71 8.36005C22.46 8.47005 22.21 8.63005 21.94 8.87005C21.8 8.99005 21.68 9.13005 21.56 9.26005C21.37 9.47005 21.2 9.67005 20.99 9.75005C20.77 9.84005 20.47 9.82005 20.17 9.80005C20.03 9.79005 19.88 9.78005 19.74 9.78005H18.73C17.84 9.78005 16.92 9.78005 16.01 9.79005C15.78 9.79005 15.51 9.90005 15.32 10.07C15.09 10.27 14.88 10.49 14.64 10.73C14.6 10.77 14.56 10.82 14.52 10.86L14.34 10.68C14.14 10.48 13.95 10.29 13.77 10.1C13.57 9.88005 13.33 9.78005 13.01 9.78005C11.25 9.79005 9.66998 9.79005 8.18997 9.78005C8.08997 9.78005 7.97998 9.73005 7.95998 9.69005C7.26998 8.84005 6.36998 8.25005 5.20998 7.88005C4.80998 7.75005 4.41998 7.59005 4.03998 7.43005L3.98998 7.41005C3.93998 7.39005 3.88998 7.37005 3.83998 7.35005L4.94998 6.28005C4.98998 6.24005 5.04998 6.19005 5.08998 6.11005C5.24998 5.81005 5.46998 5.71005 5.96998 5.71005H5.97998C12.02 5.73005 18.16 5.72005 23.44 5.72005V5.56005ZM1.20998 17.6C1.77998 17.8901 2.36998 17.89 2.94998 17.88H3.08998C3.62998 17.88 4.15998 17.88 4.73998 17.88H5.25998V17.97C5.25998 18.19 5.26998 18.4101 5.24998 18.6201C5.23998 18.75 5.12998 18.7801 5.03998 18.7801C3.75998 18.7901 2.57998 18.7901 1.42998 18.7801C1.20998 18.7801 1.20998 18.63 1.19998 18.58C1.19998 18.2801 1.19998 17.96 1.19998 17.64L1.20998 17.6ZM2.60998 16.5301H2.41998C1.66998 16.5301 1.20998 16.07 1.20998 15.33C1.20998 14.9 1.20998 14.47 1.20998 14.04V13.39C1.20998 13.48 1.20998 13.56 1.20998 13.65C1.23998 14.74 2.10998 15.61 3.19998 15.63C3.54998 15.64 3.90998 15.63 4.25998 15.63H4.49998C4.95998 15.63 5.25998 15.37 5.25998 14.96C5.25998 14.78 5.19998 14.62 5.07998 14.5C4.93998 14.36 4.72998 14.28 4.47998 14.28H3.77998H3.65998H3.40998C3.09998 14.28 2.87998 14.22 2.74998 14.09C2.61998 13.96 2.55998 13.74 2.55998 13.42V13.38C3.15998 13.34 3.76998 13.37 4.27998 13.79C4.62998 14.08 5.02998 14.07 5.28998 13.77C5.40998 13.63 5.46998 13.47 5.44998 13.29C5.42998 13.09 5.32998 12.91 5.14998 12.76C4.56998 12.28 3.91998 12.03 3.19998 12.02C2.68998 12.01 2.17998 12.01 1.67998 12.02H1.23998V10.83C1.68998 11.09 2.15998 11.13 2.60998 11.13C3.77998 11.11 4.75998 11.12 5.67998 11.13C6.09998 11.13 6.39998 11 6.62998 10.72C6.68998 10.64 6.74998 10.57 6.82998 10.47L6.83998 10.48C6.94998 10.6 7.04998 10.7 7.13998 10.8C7.32998 11.02 7.56997 11.12 7.90998 11.12C9.50998 11.11 11.11 11.12 12.71 11.11C12.85 11.11 12.92 11.14 13.01 11.24C13.27 11.51 13.54 11.78 13.8 12.03L13.97 12.2C14.34 12.56 14.7 12.56 15.06 12.2L15.19 12.07C15.45 11.81 15.73 11.54 15.98 11.27C16.1 11.14 16.21 11.11 16.38 11.1C16.96 11.1 17.54 11.1 18.12 11.1H18.47C19.29 11.1 20.13 11.1 20.95 11.11C21.45 11.11 21.78 10.97 22.04 10.63C22.08 10.57 22.13 10.52 22.19 10.46C22.2 10.47 22.22 10.49 22.23 10.5C22.64 11.08 23.24 11.13 23.65 11.1C24.3 11.08 24.95 11.08 25.61 11.09H25.75C25.98 11.09 26.21 11.09 26.44 11.09C27.1 11.09 27.35 11.06 27.81 10.79V11.99H27.1C26.7 11.99 26.29 11.99 25.89 11.99C25.18 11.99 24.52 12.24 23.94 12.71C23.74 12.87 23.63 13.06 23.61 13.26C23.59 13.43 23.65 13.6 23.77 13.74C24.03 14.04 24.42 14.05 24.78 13.76C25.14 13.47 25.51 13.34 25.94 13.34C25.95 13.34 25.97 13.34 25.99 13.34C26.15 13.34 26.32 13.34 26.48 13.34H26.5C26.53 13.62 26.47 13.85 26.33 14.01C26.17 14.19 25.92 14.27 25.62 14.24C25.39 14.22 25.17 14.22 24.93 14.23H24.86C24.79 14.23 24.71 14.23 24.64 14.23H24.59C24.53 14.23 24.47 14.23 24.41 14.24C24.04 14.28 23.78 14.58 23.8 14.93C23.82 15.31 24.07 15.57 24.42 15.58L24.62 15.59C25.08 15.6 25.61 15.62 26.12 15.56C27.08 15.44 27.78 14.69 27.86 13.7C27.86 13.76 27.86 13.81 27.86 13.87C27.87 14.42 27.88 15 27.84 15.56C27.81 16.06 27.34 16.48 26.79 16.49C25.64 16.51 24.47 16.5 23.47 16.49C23.45 16.49 23.39 16.47 23.34 16.42C23.16 16.25 22.98 16.07 22.8 15.89C22.72 15.8 22.63 15.72 22.54 15.63C21.92 15.01 21.16 14.7 20.28 14.7H8.57998C7.69998 14.7 6.93998 15.01 6.31998 15.63C6.23998 15.71 6.15998 15.79 6.07998 15.87C5.91998 16.04 5.72998 16.22 5.53998 16.39C5.47998 16.45 5.36998 16.49 5.29998 16.49C4.39998 16.54 3.48998 16.5401 2.60998 16.5301ZM27.11 9.67005C26.99 9.73005 26.84 9.76005 26.69 9.76005H26.4C25.45 9.77005 24.46 9.78005 23.48 9.75005C23.41 9.75005 23.3 9.67005 23.21 9.60005L25.25 8.78005C25.62 8.63005 25.99 8.48005 26.37 8.35005C26.39 8.34005 26.48 8.35005 26.51 8.36005C26.81 8.64005 27.05 8.90005 27.25 9.15005C27.32 9.24005 27.34 9.33005 27.32 9.43005C27.3 9.53005 27.22 9.62005 27.11 9.67005ZM5.32998 9.78005C4.91998 9.77005 4.49998 9.77005 4.07998 9.77005C3.82998 9.77005 3.58998 9.77005 3.33998 9.77005C3.00998 9.77005 2.66998 9.77005 2.32998 9.77005C1.88998 9.77005 1.77998 9.56005 1.72998 9.41005C1.71998 9.36005 1.70998 9.30005 1.70998 9.31005C2.02998 8.93005 2.35998 8.57005 2.60998 8.32005C3.60998 8.72005 4.61998 9.13005 5.60998 9.53005L5.82998 9.62005C5.69998 9.73005 5.55998 9.79005 5.32998 9.78005ZM25.61 5.11005V4.83005H26.49V4.84005C26.5 4.91005 26.49 4.94005 26.49 4.94005C26.49 4.94005 26.46 4.96005 26.39 4.97005C26.15 5.00005 25.92 5.04005 25.65 5.10005L25.61 5.11005ZM23.78 17.9501V17.88C23.8 17.88 23.82 17.88 23.84 17.88H24.49C25.04 17.88 25.61 17.88 26.17 17.88C26.71 17.89 27.28 17.8801 27.84 17.59V17.6201C27.84 17.93 27.84 18.22 27.84 18.51C27.84 18.68 27.76 18.76 27.59 18.76C26.44 18.7701 25.24 18.7701 24.04 18.76C23.86 18.76 23.79 18.6901 23.78 18.51C23.78 18.34 23.78 18.16 23.78 17.9501ZM2.56998 4.94005V4.83005H3.43998V5.11005L2.56998 4.94005Z" fill="#F36F20"/>
</g>
<defs>
<clipPath id="clip0_602_9287">
<rect width="30" height="20" fill="white"/>
</clipPath>
</defs>
</svg>
