<svg width="20" height="24" viewBox="0 0 20 24" fill="none" xmlns="http://www.w3.org/2000/svg">
<path d="M15.708 9.70776C15.8958 9.51999 16.0013 9.26531 16.0013 8.99976C16.0013 8.73421 15.8958 8.47954 15.708 8.29176C15.5202 8.10399 15.2656 7.9985 15 7.9985C14.7344 7.9985 14.4798 8.10399 14.292 8.29176L9 13.5858L6.708 11.2918C6.61502 11.1988 6.50465 11.125 6.38317 11.0747C6.26169 11.0244 6.13149 10.9985 6 10.9985C5.86851 10.9985 5.73831 11.0244 5.61683 11.0747C5.49535 11.125 5.38498 11.1988 5.292 11.2918C5.19902 11.3847 5.12527 11.4951 5.07495 11.6166C5.02463 11.7381 4.99874 11.8683 4.99874 11.9998C4.99874 12.1313 5.02463 12.2615 5.07495 12.3829C5.12527 12.5044 5.19902 12.6148 5.292 12.7078L8.292 15.7078C8.38489 15.8009 8.49524 15.8748 8.61673 15.9252C8.73822 15.9756 8.86847 16.0015 9 16.0015C9.13153 16.0015 9.26178 15.9756 9.38327 15.9252C9.50476 15.8748 9.61511 15.8009 9.708 15.7078L15.708 9.70776V9.70776ZM10.708 0.293763C10.5205 0.106292 10.2662 0.000976562 10.001 0.000976562C9.73584 0.000976562 9.48153 0.106292 9.294 0.293763C6.808 2.77576 4.06 3.99976 1 3.99976C0.734784 3.99976 0.48043 4.10512 0.292893 4.29266C0.105357 4.48019 0 4.73455 0 4.99976V11.0018C0 17.4398 3.282 21.8158 9.684 23.9478C9.8891 24.0162 10.1109 24.0162 10.316 23.9478C16.716 21.8158 20 17.4398 20 11.0018V4.99976C20 4.73455 19.8946 4.48019 19.7071 4.29266C19.5196 4.10512 19.2652 3.99976 19 3.99976C15.938 3.99976 13.19 2.77976 10.71 0.293763H10.708ZM2 5.95976C4.96 5.73576 7.628 4.50776 10 2.37576C12.37 4.50776 15.04 5.73576 18 5.95976V10.9998C18 13.8678 17.274 16.1278 15.958 17.8878C14.682 19.5918 12.74 20.9738 10 21.9418C7.26 20.9758 5.318 19.5918 4.042 17.8878C2.726 16.1298 2 13.8698 2 11.0018V5.96176V5.95976Z" fill="#F36F20"/>
</svg>
