<svg width="30" height="30" viewBox="0 0 30 30" fill="none" xmlns="http://www.w3.org/2000/svg">
<g clip-path="url(#clip0_602_9290)">
<path d="M29.842 23.1409C29.4164 20.7413 28.9978 18.3408 28.5761 15.9404C28.1287 13.396 27.6742 10.8532 27.2338 8.30799C26.9995 6.9552 26.2405 6.06247 24.9793 5.55703C24.1953 5.2425 23.4128 4.92484 22.6311 4.60484C21.8494 4.28561 21.0677 3.96404 20.2868 3.64403C19.9081 3.48833 19.5286 3.33342 19.1491 3.1785C18.9179 3.08461 18.6899 2.9829 18.4548 2.89918C18.3338 2.85615 18.2112 2.81781 18.0863 2.78729C17.9761 2.76069 17.8543 2.75365 17.7606 2.68245C17.6614 2.60734 17.624 2.48372 17.6083 2.36557C17.5388 1.85388 17.4342 1.34687 17.3452 0.838307C17.2694 0.407981 17.0781 0.0660667 16.5908 -0.000438292C16.4542 -0.000438292 16.3183 -0.000438292 16.1816 -0.000438292C16.0309 0.0551129 15.8661 0.0621546 15.7365 0.18734C15.4835 0.433018 15.3937 0.727204 15.4468 1.06364C15.5343 1.61133 15.6248 2.1598 15.7373 2.70279C15.7615 2.82015 15.7693 2.95082 15.6982 3.0541C15.6202 3.16833 15.489 3.22075 15.3773 3.29351C15.0712 3.49146 14.8439 3.78878 14.5339 3.98047C14.3199 4.1127 14.1177 3.93196 13.9396 3.8146C13.5843 3.57988 13.5843 3.57988 13.6624 3.16129C13.7897 2.48215 13.9053 1.79989 14.0177 1.11841C14.1154 0.525342 13.8608 0.135701 13.3196 -0.0012207C13.1634 -0.0012207 13.008 -0.0012207 12.8518 -0.0012207C12.4247 0.109099 12.2084 0.401721 12.1342 0.822659C12.0194 1.47597 11.8827 2.12616 11.7976 2.78338C11.775 2.95551 11.7227 3.14329 11.5774 3.25205C11.422 3.36941 11.2151 3.3788 11.0347 3.432C10.7856 3.50476 10.5521 3.61978 10.3123 3.71602C10.0468 3.82242 9.78211 3.92883 9.51661 4.03524C8.9278 4.27153 8.33978 4.5086 7.75176 4.74567C7.16374 4.98352 6.57572 5.22138 5.98848 5.46079C5.40124 5.70021 4.814 5.93963 4.22676 6.18061C4.20021 6.19157 4.17366 6.20252 4.14789 6.21347C3.07336 6.65475 2.39632 7.45047 2.13862 8.592C2.04413 9.01059 1.98322 9.43623 1.90825 9.85873C1.31008 13.2395 0.722841 16.6219 0.125449 20.0035C0.00440927 20.6865 -0.0783666 21.3899 0.123888 22.0612C0.532301 23.4132 1.48422 24.1831 2.86174 24.4264C5.52696 24.8975 8.19219 25.3693 10.8582 25.8364C11.087 25.8763 11.1924 25.9764 11.2323 26.2033C11.308 26.6352 11.365 27.0718 11.465 27.499C11.807 28.9582 13.0861 29.9299 14.234 29.9886C14.7619 30.0152 15.2836 29.9941 15.8021 29.9041C19.3318 29.2915 22.8599 28.664 26.3873 28.0373C26.923 27.9418 27.4758 27.9011 27.9803 27.6805C29.1048 27.1899 29.8061 26.3582 29.9701 25.1142C30.0528 24.482 29.9529 23.7669 29.842 23.1409ZM8.26482 23.5149C6.55151 23.2114 4.83977 22.9023 3.12568 22.6026C2.18626 22.4383 1.6857 21.7357 1.85203 20.7898C2.53766 16.8856 3.22408 12.9821 3.90971 9.07788C4.00186 8.55132 4.27361 8.14916 4.77105 7.94495C6.97008 7.04439 9.17379 6.15479 11.4322 5.23859C11.3658 5.63527 11.3049 5.97797 11.251 6.32145C11.1768 6.79715 11.4798 7.24 11.9312 7.32372C12.4184 7.41447 12.8573 7.13437 12.9635 6.64849C13.04 6.29876 13.0931 5.94354 13.1587 5.5852C13.2884 5.61415 13.3555 5.71742 13.4383 5.79332C15.0696 7.27286 16.6947 8.75944 18.3299 10.2343C18.8008 10.6591 18.9726 11.1638 18.8633 11.7827C18.3494 14.6886 17.8387 17.5944 17.3264 20.5011C17.1593 21.4509 16.9836 22.3984 16.8251 23.3498C16.6556 24.3693 15.9794 24.8748 14.9564 24.6972C12.7246 24.3099 10.4951 23.9101 8.26482 23.5149ZM27.0151 26.0523C25.2846 26.3692 23.5518 26.6735 21.8198 26.9795C19.5419 27.3816 17.2624 27.7791 14.9845 28.1828C14.1419 28.3322 13.4297 27.8667 13.2439 27.0256C13.183 26.751 13.14 26.4732 13.0814 26.1556C13.7436 26.2651 14.3621 26.3926 14.9876 26.4662C16.6853 26.6665 18.2089 25.5414 18.5118 23.8498C19.1295 20.3994 19.7277 16.945 20.3345 13.4922C20.4274 12.9649 20.5399 12.4399 20.6133 11.9102C20.7749 10.7436 20.4118 9.75858 19.5403 8.966C18.3221 7.85732 17.1062 6.74786 15.881 5.64701C15.7123 5.496 15.6779 5.40133 15.8786 5.2605C16.0137 5.16661 16.1277 5.04299 16.2511 4.93188C16.7322 4.49999 17.2765 4.39437 17.8746 4.63848C20.0674 5.53199 22.2578 6.43098 24.4491 7.32841C25.0105 7.55844 25.3135 7.98016 25.4182 8.57792C26.1858 12.9618 26.9612 17.3433 27.7343 21.7263C27.8897 22.6089 28.0475 23.4907 28.1974 24.374C28.3309 25.1635 27.8163 25.906 27.0151 26.0523Z" fill="#F36F20"/>
<path d="M11.2747 13.5639C11.4082 12.8081 11.5433 12.0523 11.6831 11.2659C11.7963 11.3238 11.8822 11.3645 11.9666 11.4107C12.2188 11.5484 12.3992 11.7698 12.6069 11.9599C12.8552 12.1876 13.1949 12.1782 13.4206 11.9521C13.6408 11.7315 13.658 11.4083 13.444 11.1603C13.1621 10.8348 12.8427 10.5539 12.4617 10.3427C12.2789 10.241 11.9861 10.2457 11.9236 10.0555C11.8643 9.8748 11.972 9.63929 12.0017 9.42726C12.0493 9.08613 11.8455 8.80055 11.5168 8.74265C11.227 8.69101 10.9397 8.88583 10.8639 9.19488C10.8202 9.37405 10.771 9.55714 10.7632 9.74022C10.7538 9.95147 10.6468 9.9906 10.468 10.0015C9.68085 10.0493 9.0616 10.4162 8.58915 11.0359C7.92616 11.9052 7.6427 13.4371 8.90229 14.4668C9.1514 14.6702 9.39582 14.8783 9.66367 15.0559C9.75738 15.1185 9.81127 15.1764 9.78628 15.3149C9.55591 16.5691 9.33413 17.8257 9.12017 19.083C9.09283 19.2442 9.05379 19.2645 8.89995 19.2223C8.41501 19.0893 8.02846 18.8068 7.663 18.4774C7.35845 18.2028 7.02266 18.2028 6.78448 18.4633C6.55334 18.7161 6.59082 19.0681 6.87897 19.3404C7.39593 19.8294 7.97927 20.2081 8.68052 20.3669C8.86481 20.4084 8.88746 20.4804 8.84529 20.647C8.79297 20.8536 8.76095 21.068 8.74611 21.2816C8.72425 21.5898 8.92963 21.8441 9.21466 21.8926C9.52233 21.9451 9.7933 21.7753 9.87608 21.4584C9.92996 21.2518 9.96901 21.039 9.99009 20.827C10.0088 20.6337 10.0955 20.5711 10.2845 20.5618C10.9045 20.5305 11.4551 20.3012 11.947 19.9272C13.6518 18.6308 13.6275 16.2108 11.8955 15.0638C11.6932 14.93 11.4824 14.8079 11.2684 14.6921C11.1419 14.624 11.0849 14.5583 11.1255 14.3971C11.195 14.1241 11.2255 13.8416 11.2747 13.5639ZM10.0354 13.8784C9.55357 13.5083 9.09674 13.1703 9.21622 12.4888C9.3232 11.877 9.64649 11.4428 10.2384 11.2205C10.461 11.1368 10.5188 11.1666 10.4688 11.4232C10.3118 12.2291 10.1814 13.0397 10.0354 13.8784ZM12.0368 17.4266C12.0337 18.3155 11.3653 19.1511 10.4969 19.3584C10.3329 19.3975 10.2415 19.3975 10.2822 19.1785C10.4766 18.1261 10.6609 17.0714 10.8491 16.0183C10.8647 15.933 10.835 15.8125 11.0092 15.8884C11.623 16.156 12.0392 16.7678 12.0368 17.4266Z" fill="#F36F20"/>
</g>
<defs>
<clipPath id="clip0_602_9290">
<rect width="30" height="30" fill="white"/>
</clipPath>
</defs>
</svg>
